<svg xmlns="http://www.w3.org/2000/svg" xmlns:xlink="http://www.w3.org/1999/xlink" version="1.1" id="Layer_1" x="0px" y="0px" width="100px" height="100px" viewBox="0 0 100 100" enable-background="new 0 0 100 100" xml:space="preserve">
<g>
	<path d="M49.634,76.043c-14.417-0.197-26.046-11.939-26.046-26.404c0-6.419,2.29-12.302,6.097-16.879l-6.971-5.511   c-5.005,6.093-8.01,13.89-8.01,22.39c0,19.371,15.605,35.09,34.93,35.286V95L63.5,81.135L49.634,67.268V76.043z"/>
	<path d="M50,14.342c-0.122,0-0.244,0.003-0.366,0.005V5L35.768,18.867l13.866,13.866V23.23c0.122-0.002,0.244-0.005,0.366-0.005   c14.588,0,26.413,11.826,26.413,26.413c0,6.615-2.432,12.661-6.449,17.295l6.654,5.884c5.404-6.201,8.678-14.308,8.678-23.179   C85.296,30.146,69.493,14.342,50,14.342z"/>
</g>
</svg>