<svg xmlns:x="http://ns.adobe.com/Extensibility/1.0/" xmlns:i="http://ns.adobe.com/AdobeIllustrator/10.0/" xmlns:graph="http://ns.adobe.com/Graphs/1.0/" xmlns="http://www.w3.org/2000/svg" xmlns:xlink="http://www.w3.org/1999/xlink" version="1.1" id="Layer_1" x="0px" y="0px" width="100px" height="100px" viewBox="0 0 100 100" enable-background="new 0 0 100 100" xml:space="preserve">
<metadata>
	<sfw xmlns="http://ns.adobe.com/SaveForWeb/1.0/">
		<slices/>
		<sliceSourceBounds width="43.847" height="84.95" x="28.076" y="-92.225" bottomLeftOrigin="true"/>
	</sfw>
</metadata>
<path d="M45.85,61.341c0-0.479-0.009-1.302-0.009-1.781c0-8.999-0.022-17.855-0.022-26.642H43.81c0,9.335,0,18.167,0,27.425  c-4.942,8.969-10.262,18.244-15.341,27.214c-1.08,1.906,0.18,4.668,2.4,4.668c12.67,0,25.493,0,37.862,0  c1.07,0,1.918-0.75,2.396-1.393c0.754-0.818,1.135-2.328,0.406-3.582c-5.264-9.072-10.699-18.146-15.643-27.221  c0-9.153,0-18.325,0-27.111h-2.745c0,2.197,0,4.062,0,6.267c0,5.928,0,11.856,0,17.784c0,1.279,0,3.467,0,3.467l0.562,0.926  c0.035,0.062,0.078,0.124,0.117,0.187c0.377,0.617,0.834,1.235,1.19,1.853c4.778,8.275,9.571,16.577,14.351,24.854  c0.154,0.266,0.072,0.588-0.102,0.75c-0.068,0.211-0.236,0.477-0.533,0.477c-12.369,0-25.191,0-37.862,0  c-0.441,0-0.726-0.684-0.506-1.062c1.199-2.078,2.393-4.297,3.592-6.377c0.998-1.729,1.993-3.46,2.989-5.191  c0.905,0,3.917,0,5.769,0c1.098,0,1.098-1.647,0-1.647c-1.771,0-3.188,0-4.82,0c0.211-0.366,0.422-0.731,0.632-1.099  c0.144,0,0.343,0,0.343,0s3.844,0,5.491,0c1.099,0,1.099-1.647,0-1.647c-1.453,0-3.332,0-4.886,0  c0.316-0.55,0.633-1.099,0.949-1.647c0.055,0,0.094,0,0.094,0s3.844,0,6.041,0c1.098,0,1.098-1.646,0-1.646  c-1.902,0-3.394,0-5.186,0c0.562-0.977,1.123-1.954,1.686-2.929C43.995,64.605,44.911,62.969,45.85,61.341"/>
<circle fill="none" stroke="#000000" stroke-miterlimit="10" cx="47.794" cy="26.839" r="2.414"/>
<circle fill="none" stroke="#000000" stroke-miterlimit="10" cx="52.729" cy="20.331" r="3.425"/>
<circle fill="none" stroke="#000000" stroke-miterlimit="10" cx="47.302" cy="9.881" r="2.106"/>
</svg>