<svg xmlns="http://www.w3.org/2000/svg" xmlns:xlink="http://www.w3.org/1999/xlink" version="1.1" id="Layer_1" x="0px" y="0px" width="100px" height="100px" viewBox="0 0 100 100" enable-background="new 0 0 100 100" xml:space="preserve">
<rect fill="none" width="100" height="100"/>
<path d="M34,67h-4V54h4V67z M95,35.223V41h-5v-6c0-9.8-7.665-17.551-17.47-17.551C62.732,17.449,55,25.2,55,35v6h2  c1.299,0,2.587,1.338,2.587,2.635v41.263C59.587,86.191,58.299,87,57,87H7c-1.294,0-2-0.809-2-2.103V43.635C5,42.338,5.706,41,7,41  h43v-6c0-12.388,10.143-22.242,22.53-22.242C84.924,12.758,95,22.834,95,35.223z M55,46H10v37h45V46z M34,69h-4v4h4V69z"/>
</svg>