<svg xmlns="http://www.w3.org/2000/svg" xmlns:xlink="http://www.w3.org/1999/xlink" version="1.1" id="Layer_1" x="0px" y="0px" width="100px" height="100px" viewBox="0 0 100 100" enable-background="new 0 0 100 100" xml:space="preserve">
<path fill="#000000" d="M95.067,57.405l-0.004-0.004c-0.119-0.1-2.566-2.17-5.012-4.665c-1.221-1.245-2.44-2.601-3.346-3.82  c-0.454-0.608-0.826-1.182-1.08-1.661c-0.257-0.477-0.38-0.864-0.399-1.018v0c-0.094-0.583-0.163-1.329-0.206-2.145  c-0.044-0.817-0.062-1.708-0.062-2.604c0-0.285,0.006-0.568,0.009-0.852c1.313-1.862,2.37-3.869,3.115-5.991  c0.827-2.351,1.272-4.841,1.271-7.407c0.001-3.861-1.008-7.547-2.801-10.854c-2.693-4.966-7.119-9.09-12.597-11.982  c-5.481-2.89-12.033-4.555-19.063-4.556c-9.372,0.003-17.897,2.956-24.165,7.844c-3.132,2.446-5.701,5.384-7.495,8.694  c-1.793,3.307-2.803,6.994-2.801,10.854c-0.001,3.861,1.008,7.547,2.801,10.854c2.693,4.966,7.119,9.09,12.596,11.981  c5.482,2.891,12.034,4.556,19.063,4.557c4.022,0,7.882-0.557,11.477-1.563c2.17,1.586,4.991,3.183,8.618,4.524  c9.019,3.341,15.246,3.743,17.699,3.743c0.701,0,1.095-0.033,1.157-0.039l5.295-0.475L95.067,57.405z M68.199,48.908l-0.915-0.729  l-1.117,0.348c-3.479,1.083-7.281,1.686-11.273,1.686c-8.44,0.004-16.041-2.682-21.446-6.908c-2.704-2.111-4.858-4.6-6.329-7.316  c-1.471-2.718-2.267-5.657-2.268-8.75c0.001-3.093,0.797-6.032,2.268-8.75c2.203-4.073,5.957-7.638,10.773-10.178  c4.813-2.541,10.672-4.047,17.001-4.046c8.439-0.003,16.041,2.682,21.446,6.908c2.704,2.112,4.858,4.6,6.329,7.316  c1.471,2.719,2.267,5.657,2.269,8.75c-0.001,2.056-0.354,4.042-1.022,5.942c-0.667,1.9-1.651,3.715-2.918,5.41l-0.425,0.569  l-0.014,0.71c-0.012,0.531-0.018,1.073-0.018,1.618c0,0.956,0.02,1.918,0.068,2.838c0.048,0.921,0.126,1.797,0.253,2.604v0.002  c0.146,0.885,0.475,1.662,0.88,2.429c0.717,1.333,1.714,2.643,2.817,3.934c0.941,1.096,1.961,2.165,2.942,3.142  c-2.787-0.454-6.485-1.322-10.979-2.985C72.779,52.064,70.105,50.426,68.199,48.908z"/>
<path fill="#000000" d="M49.615,68.341c-1.739-3.437-4.597-6.287-8.125-8.282c-3.531-1.995-7.747-3.141-12.261-3.142  c-6.019,0.002-11.507,2.034-15.549,5.412c-2.02,1.688-3.679,3.722-4.837,6.012c-1.158,2.287-1.809,4.838-1.808,7.504  c-0.002,3.304,1,6.419,2.72,9.094c0.001,0.122,0.003,0.242,0.003,0.362c0,0.589-0.011,1.171-0.037,1.7  c-0.026,0.528-0.069,1.006-0.122,1.362L9.6,88.357l0,0.006c0.003,0.004-0.049,0.21-0.192,0.49c-0.246,0.498-0.735,1.221-1.325,1.952  c-0.884,1.106-1.987,2.264-2.856,3.126c-0.435,0.431-0.812,0.791-1.078,1.04c-0.133,0.125-0.239,0.222-0.31,0.287L3.76,95.331  l-0.019,0.017l-0.004,0.004L0,98.711l5.001,0.481c0.068,0.008,0.342,0.03,0.808,0.03c1.629,0.001,5.611-0.287,11.306-2.549  l0.038-0.014l-0.038,0.014c2.129-0.843,3.832-1.839,5.185-2.848c2.184,0.611,4.511,0.946,6.928,0.946  c6.019-0.002,11.508-2.034,15.55-5.412c2.02-1.688,3.679-3.721,4.837-6.011c1.159-2.289,1.809-4.838,1.808-7.505  C51.424,73.179,50.773,70.628,49.615,68.341z M45.672,81.355c-1.295,2.564-3.505,4.819-6.356,6.43  c-2.849,1.61-6.323,2.569-10.088,2.569c-2.373,0-4.63-0.385-6.693-1.072l-1.184-0.395l-0.949,0.81  c-1.114,0.95-2.686,1.985-4.915,2.87l-0.038,0.015l0.038-0.015c-1.612,0.64-3.052,1.097-4.304,1.425  c0.426-0.512,0.838-1.038,1.212-1.573c0.362-0.519,0.691-1.044,0.966-1.593c0.272-0.553,0.502-1.127,0.608-1.814l0-0.003v0.002  c0.083-0.565,0.132-1.166,0.164-1.792c0.031-0.626,0.042-1.274,0.042-1.918c0-0.365-0.004-0.728-0.01-1.082l-0.012-0.673  l-0.385-0.551c-1.491-2.141-2.314-4.562-2.316-7.15c0.001-1.95,0.469-3.798,1.333-5.511c1.295-2.564,3.506-4.819,6.356-6.43  c2.849-1.61,6.323-2.569,10.087-2.568c5.019-0.003,9.523,1.708,12.715,4.382c1.596,1.335,2.864,2.905,3.729,4.616  c0.865,1.713,1.332,3.561,1.333,5.511C47.004,77.796,46.537,79.644,45.672,81.355z"/>
<path fill="#000000" d="M30.318,83.65c-0.184-0.182-0.442-0.289-0.736-0.364c-0.295-0.074-0.628-0.108-0.962-0.108  c-0.333,0-0.667,0.034-0.961,0.108c-0.294,0.075-0.553,0.183-0.737,0.364c-0.199,0.202-0.321,0.493-0.408,0.828  c-0.085,0.336-0.127,0.717-0.127,1.096c0,0.359,0.039,0.716,0.123,1.026c0.052,0.188,0.122,0.358,0.215,0.505  c0.074,0.188,0.17,0.344,0.29,0.439c0.62,0.501,2.566,0.501,3.186,0c0.096-0.076,0.174-0.19,0.241-0.327  c0.134-0.167,0.224-0.381,0.289-0.617c0.084-0.311,0.123-0.667,0.123-1.026c0-0.379-0.043-0.76-0.128-1.096  C30.639,84.144,30.517,83.853,30.318,83.65z M27.54,83.772c0.068-0.025,0.141-0.051,0.223-0.07c0.251-0.063,0.555-0.097,0.857-0.097  c0.303,0,0.606,0.033,0.857,0.097c0.134,0.033,0.25,0.075,0.345,0.122C29.213,83.584,28.207,83.567,27.54,83.772z"/>
<path fill="#000000" d="M35.926,70.175c0-0.027,0.003-0.055,0.003-0.082c0-0.937-0.165-1.795-0.494-2.576  c-0.33-0.78-0.78-1.456-1.352-2.027c-0.573-0.572-1.257-1.014-2.055-1.327c-0.797-0.313-1.665-0.468-2.601-0.468  c-0.919,0-1.778,0.139-2.575,0.416c-0.798,0.277-1.509,0.673-2.133,1.184c-0.625,0.512-1.145,1.122-1.561,1.834  c-0.35,0.599-1.075,1.356-0.994,2.011c-0.002,0.027-0.01,0.053-0.01,0.081c-0.001,0.19,0.054,0.387,0.178,0.562  c0.209,0.287,0.578,0.474,1.004,0.611c0.427,0.136,0.914,0.212,1.359,0.213c0.417-0.003,0.796-0.062,1.072-0.244  c0.848-0.577,1.238-1.33,1.621-1.889c0.191-0.283,0.378-0.515,0.608-0.673s0.504-0.255,0.914-0.256c0.414,0,0.8,0.071,1.164,0.213  c0.365,0.144,0.684,0.34,0.96,0.592c0.276,0.254,0.491,0.543,0.648,0.873c0.155,0.325,0.233,0.681,0.233,1.075  c0,0.41-0.034,0.763-0.097,1.056c-0.063,0.292-0.169,0.571-0.32,0.841c-0.152,0.271-0.355,0.556-0.608,0.85  c-0.256,0.298-0.585,0.648-0.986,1.051l-0.253,0.251l-0.001,0.002c-0.68,0.693-1.496,1.551-2.147,2.453  c-0.649,0.902-1.145,1.851-1.148,2.762c-0.002,0.55,0.196,1.087,0.645,1.532c0.171,0.168,0.409,0.268,0.681,0.338  c0.272,0.066,0.58,0.099,0.888,0.099s0.616-0.032,0.888-0.099c0.272-0.07,0.51-0.17,0.682-0.338c0.19-0.19,0.24-0.436,0.239-0.65  c-0.002-0.286-0.07-0.561-0.068-0.762c0-0.05,0.003-0.094,0.011-0.131c0.081-0.419,0.218-0.817,0.411-1.197  c0.194-0.379,0.446-0.749,0.756-1.108c0.311-0.359,0.698-0.731,1.163-1.112l0.005-0.005l0.006-0.005  c1.054-1.003,1.861-1.984,2.421-2.948c0.562-0.968,0.848-1.947,0.848-2.929C35.93,70.222,35.926,70.198,35.926,70.175z   M30.222,67.382c-0.412-0.161-0.85-0.241-1.311-0.241c-0.466-0.001-0.833,0.119-1.125,0.317c0.281-0.217,0.627-0.356,1.121-0.356  c0.451,0,0.875,0.078,1.275,0.234c0.291,0.113,0.547,0.271,0.788,0.449C30.74,67.623,30.492,67.487,30.222,67.382z M31.148,67.92  c0.027,0.023,0.06,0.042,0.087,0.065c0.013,0.013,0.025,0.026,0.038,0.039C31.232,67.988,31.19,67.954,31.148,67.92z"/>
<path d="M54.907,47.36c-1.396-0.01-2.587-0.441-3.566-1.294c-0.98-0.854-1.467-1.888-1.459-3.104  c0.008-1.216,0.509-2.25,1.502-3.104c0.991-0.852,2.187-1.274,3.583-1.264c1.367,0.01,2.548,0.448,3.544,1.314  s1.489,1.908,1.481,3.124c-0.009,1.217-0.516,2.244-1.524,3.084C57.46,46.955,56.273,47.37,54.907,47.36z M60.234,8.429  c4.683,4.95-1.33,27.223-1.33,27.223l-8.123-0.056c0,0-5.649-22.358-0.895-27.238C51.691,6.505,58.456,6.55,60.234,8.429z"/>
</svg>