<svg xmlns="http://www.w3.org/2000/svg" xmlns:xlink="http://www.w3.org/1999/xlink" version="1.1" id="Capa_1" x="0px" y="0px" width="100px" height="100px" viewBox="0 0 100 100" enable-background="new 0 0 100 100" xml:space="preserve">
<g id="Capa_45">
	<g>
		<path d="M33.774,23.399L33.774,23.399c1.788,0,3.528-0.519,5.031-1.502c4.244-2.774,5.439-8.488,2.663-12.737    C39.763,6.556,36.883,5,33.765,5c-1.787,0-3.526,0.52-5.028,1.502c-2.06,1.346-3.47,3.411-3.974,5.817    c-0.503,2.403-0.039,4.86,1.307,6.915C27.774,21.842,30.654,23.399,33.774,23.399z M26.207,12.62    c0.423-2.02,1.607-3.753,3.337-4.883c1.262-0.826,2.722-1.262,4.222-1.262c2.618,0,5.037,1.307,6.469,3.492    c2.331,3.567,1.329,8.365-2.235,10.694c-1.263,0.827-2.724,1.264-4.224,1.264l0,0c-2.62,0-5.039-1.309-6.471-3.5    C26.175,16.7,25.785,14.638,26.207,12.62z"/>
		<path d="M61.854,22.093l0.443,0.166l5.271-5.271l-0.16-0.441c-0.221-0.605-0.55-1.132-0.98-1.565    c-0.818-0.82-1.907-1.271-3.067-1.271c-1.158,0-2.248,0.45-3.066,1.271c-0.82,0.819-1.271,1.906-1.271,3.065    c0,1.157,0.451,2.246,1.271,3.064C60.717,21.534,61.241,21.864,61.854,22.093z M61.337,16.023c0.539-0.54,1.259-0.838,2.023-0.838    c0.766,0,1.485,0.297,2.023,0.836c0.178,0.179,0.328,0.384,0.451,0.614l-3.883,3.886c-0.233-0.128-0.438-0.279-0.614-0.454    c-0.542-0.54-0.84-1.258-0.84-2.021S60.794,16.564,61.337,16.023z"/>
		<path d="M83.595,28.916L68.991,33.85v-6.504l4.425,3.264L75.82,28.2l-7.809-10.598l-1.072,1.036l6.941,9.417l-0.612,0.613    l-9.416-6.938l-1.049,1.052l4.712,3.476v8.091l-16.444,5.555l2.461,7.282l2.66-0.899V95h24.751V37.921l5.113-1.728L83.595,28.916z     M79.469,36.862L79.469,36.862l-16.045,5.423l0.471,1.397l15.574-5.263v55.105H57.668V44.229l-3.21,1.086l-1.517-4.486    l29.73-10.042l1.516,4.482L79.469,36.862z"/>
		<path d="M34.38,40.265l1.306,1.449c0.819,0.904,1.984,1.422,3.197,1.422c0.472,0,0.943-0.077,1.458-0.25l13.81-5.905l-2.077-6.057    l-11.853,2.917l-6.153-6.829c-1.185-1.756-2.97-2.942-5.033-3.347c-0.503-0.099-1.018-0.148-1.527-0.148    c-3.762,0-7.017,2.683-7.74,6.378l-4.378,22.357c-0.129,0.649-0.158,1.325-0.091,2.124L14.401,72.34l-0.458,21.837l7.64,0.644    l3.213-21.695l0.483-9.569l3.132,7.176l-0.468,23.039l7.982,0.583l2.963-24.168c0.061-0.847-0.08-1.674-0.419-2.457l-6.913-15.859    l2.366-12.11L34.38,40.265z M30.021,52.036l7.096,16.28c0.243,0.561,0.345,1.154,0.304,1.727l-2.789,22.736l-5.184-0.378    l0.445-21.965l-4.631-10.611l-1.289,0.308l-0.636,12.727l-3.012,20.376l-4.878-0.412l0.428-20.433l0.899-18.041l-0.004-0.051    c-0.059-0.68-0.038-1.24,0.065-1.763l4.378-22.358c0.588-3.005,3.234-5.186,6.292-5.186c0.414,0,0.832,0.042,1.243,0.121    c1.691,0.331,3.154,1.313,4.119,2.763l6.846,7.609l11.4-2.806l1.195,3.483l-12.491,5.345c-1.09,0.362-2.287,0.046-3.039-0.783    h0.001l-6.459-7.163l-1.096,0.988l3.463,3.841L30.021,52.036z"/>
	</g>
</g>
</svg>