<svg xmlns="http://www.w3.org/2000/svg" xmlns:xlink="http://www.w3.org/1999/xlink" version="1.1" id="Layer_1" x="0px" y="0px" width="100px" height="100px" viewBox="0 0 100 100" enable-background="new 0 0 100 100" xml:space="preserve">
<rect fill="none" width="100" height="100"/>
<path d="M79.995,39H77v-7C77,17.033,64.967,5,49.995,5C35.03,5,23,17.033,23,32v7h-2.996c-1.563,0-2.984,1.745-2.984,3.313v49.849  c0,1.565,1.272,2.838,2.836,2.838h60.284c1.568,0,2.839-1.272,2.839-2.838V42.313C82.979,40.745,81.563,39,79.995,39z M29,32  c0-11.841,9.165-21,21-21c11.846,0,21,9.159,21,21v7H29V32z M77,89H23V45h54V89z M53,71h-6V54h6V71z M53,80h-6v-6h6V80z"/>
</svg>